<svg version="1.2" xmlns="http://www.w3.org/2000/svg" viewBox="0 0 45 62" width="10" height="14">
	<title>TestRail_Logo_Main_01-svg</title>
	<style>
		.s0 { fill: #65c179 } 
	</style>
	<g id="Logos">
		<g id="Layer">
			<g id="Layer">
				<path id="Layer" class="s0" d="m13.7 61.2c-0.4 0.4-1 0.4-1.3 0l-7.1-7.1c-0.4-0.3-0.4-0.9 0-1.2l7.1-7.1c0.3-0.4 0.9-0.4 1.3 0l7.1 7.1c0.3 0.3 0.3 0.9 0 1.2z"/>
				<path id="Layer" class="s0" d="m25.2 49.8c-0.4 0.3-1 0.3-1.3 0l-7.1-7.1c-0.4-0.4-0.4-1 0-1.3l7.1-7.1c0.3-0.4 0.9-0.4 1.3 0l7.1 7.1c0.3 0.3 0.3 0.9 0 1.3z"/>
				<path id="Layer" class="s0" d="m36.6 38.3c-0.3 0.3-0.9 0.3-1.2 0l-7.2-7.1c-0.3-0.4-0.3-0.9 0-1.3l7.2-7.1c0.3-0.4 0.9-0.4 1.2 0l7.1 7.1c0.4 0.4 0.4 0.9 0 1.3z"/>
				<path id="Layer" class="s0" d="m13.9 38.5c-0.4 0.3-0.9 0.3-1.3 0l-7.1-7.1c-0.3-0.4-0.3-0.9 0-1.3l7.1-7.1c0.4-0.3 0.9-0.3 1.3 0l7.1 7.1c0.3 0.4 0.3 0.9 0 1.3z"/>
				<path id="Layer" class="s0" d="m25.4 27c-0.4 0.4-1 0.4-1.3 0l-7.1-7.1c-0.4-0.3-0.4-0.9 0-1.3l7.1-7.1c0.3-0.3 0.9-0.3 1.3 0l7.1 7.1c0.3 0.4 0.3 1 0 1.3z"/>
				<path id="Layer" class="s0" d="m14.1 15.8c-0.4 0.3-0.9 0.3-1.3 0l-7.1-7.2c-0.3-0.3-0.3-0.9 0-1.2l7.1-7.1c0.4-0.4 0.9-0.4 1.3 0l7.1 7.1c0.4 0.3 0.4 0.9 0 1.2z"/>
			</g>
		</g>
	</g>
</svg>